<?xml version="1.0" standalone="no"?><svg xmlns="http://www.w3.org/2000/svg" viewBox="0 0 1440 320"><path fill="#0099ff" fill-opacity="1" d="M0,224L10.4,192C20.9,160,42,96,63,106.7C83.5,117,104,203,125,224C146.1,245,167,203,188,202.7C208.7,203,230,245,250,261.3C271.3,277,292,267,313,234.7C333.9,203,355,149,376,138.7C396.5,128,417,160,438,170.7C459.1,181,480,171,501,181.3C521.7,192,543,224,563,202.7C584.3,181,605,107,626,69.3C647,32,668,32,689,69.3C709.6,107,730,181,751,218.7C772.2,256,793,256,814,240C834.8,224,856,192,877,154.7C897.4,117,918,75,939,90.7C960,107,981,181,1002,202.7C1022.6,224,1043,192,1064,202.7C1085.2,213,1106,267,1127,272C1147.8,277,1169,235,1190,208C1210.4,181,1231,171,1252,176C1273,181,1294,203,1315,202.7C1335.7,203,1357,181,1377,192C1398.3,203,1419,245,1430,266.7L1440,288L1440,320L1429.6,320C1419.1,320,1398,320,1377,320C1356.5,320,1336,320,1315,320C1293.9,320,1273,320,1252,320C1231.3,320,1210,320,1190,320C1168.7,320,1148,320,1127,320C1106.1,320,1085,320,1064,320C1043.5,320,1023,320,1002,320C980.9,320,960,320,939,320C918.3,320,897,320,877,320C855.7,320,835,320,814,320C793,320,772,320,751,320C730.4,320,710,320,689,320C667.8,320,647,320,626,320C605.2,320,584,320,563,320C542.6,320,522,320,501,320C480,320,459,320,438,320C417.4,320,397,320,376,320C354.8,320,334,320,313,320C292.2,320,271,320,250,320C229.6,320,209,320,188,320C167,320,146,320,125,320C104.3,320,83,320,63,320C41.7,320,21,320,10,320L0,320Z"></path></svg>